<svg width="34" height="34" viewBox="0 0 34 34" fill="none" xmlns="http://www.w3.org/2000/svg">
<path d="M26 0H8C3.58172 0 0 3.58172 0 8V26C0 30.4183 3.58172 34 8 34H26C30.4183 34 34 30.4183 34 26V8C34 3.58172 30.4183 0 26 0Z" fill="black"/>
<path d="M26 0H8C3.58172 0 0 3.58172 0 8V26C0 30.4183 3.58172 34 8 34H26C30.4183 34 34 30.4183 34 26V8C34 3.58172 30.4183 0 26 0Z" fill="black"/>
<path d="M0 0V34H34V0H0ZM27.4987 21.0146L21.0127 27.5012V12.9854H12.9842V27.5012H6.50131V19.4719L12.9842 12.9854H6.50131V6.49882H12.9842V12.9854L19.4702 6.49882H27.4987V21.0146Z" fill="white"/>
</svg>
